<svg xmlns="http://www.w3.org/2000/svg" viewBox="0 0 31.28 41.61">
  <path fill="#f7b100" d="M11.33 30.11c2.37 2.38 6.24 2.38 8.61 0 2.39-2.4 2.26-6.34-.13-8.73l-.74-.74-4.31 4.31c.96.96 2.51.96 3.47 0l.68-.68c.63 1.35.39 3-.72 4.11-1.53 1.53-4.08 1.41-5.45-.36-1.13-1.46-.9-3.56.41-4.86l12.82-12.82c.96-.96.96-2.51 0-3.47l-14.51 14.51c-2.4 2.4-2.53 6.33-.13 8.73z"/>
  <path fill="#ed5700" d="M7.77 33.42c4.3 4.44 11.44 4.44 15.73 0 4.18-4.32 3.94-11.27-.31-15.52l-.69-.69-1.74 1.74.71.71c3.27 3.27 3.45 8.8.22 12.1-3.32 3.39-8.8 3.39-12.12 0-3.24-3.3-3.05-8.83.22-12.1l12.75-12.75c.96-.96.96-2.51 0-3.47l-14.47 14.47c-4.25 4.25-4.49 11.2-.31 15.52z"/>
  <path fill="#d62c0b" d="M26.58 14.42l-.64-.64-1.74 1.74.67.67c5.16 5.16 5.45 13.57.4 18.85-5.25 5.49-14.04 5.49-19.29 0-5.05-5.27-4.76-13.69.4-18.85L19.12 3.47c.96-.96.96-2.51 0-3.47L4.7 14.42c-6 6-6.35 16.15-.5 22.29 6.22 6.53 16.67 6.53 22.89 0 5.85-6.14 5.49-16.29-.5-22.29z"/>
  <path fill="#d62c0b" d="M14.52 2.35l-1.74-1.74c-.96.96-.96 2.51 0 3.47l1.74-1.74z"/>
  <path fill="#ed5700" d="M11.09 5.78l-1.74-1.74c-.96.96-.96 2.51 0 3.47l1.74-1.74z"/>
  <path fill="#f7b100" d="M7.67 9.2l-1.74-1.74c-.96.96-.96 2.51 0 3.47l1.74-1.74z"/>
</svg>