
<svg width="155" height="32" viewBox="0 0 155 32" fill="none" xmlns="http://www.w3.org/2000/svg">
    <g clip-path="url(#clip0_2001_78)">
        <path d="M47.5279 15.8862H43.2058C43.2058 15.8862 43.1846 17.8227 44.863 17.8227H45.5884V19.5952C45.0967 19.9473 44.1619 20.2174 43.5215 20.2174C41.069 20.2174 39.3117 18.3386 39.3117 15.9985C39.3117 13.6584 41.1662 11.8707 43.5215 11.8707C44.2924 11.8707 45.2849 12.1256 46.0255 12.766C46.1894 12.9057 46.4019 12.8905 46.5263 12.7175L47.4278 11.3486C47.534 11.1938 47.5006 10.9783 47.3458 10.8478C46.329 9.99491 44.7689 9.57605 43.5124 9.57605C39.861 9.57605 36.9897 12.3836 36.9897 16.0015C36.9897 19.6195 39.8701 22.427 43.5215 22.427C44.9237 22.427 46.6386 21.9111 47.6008 21.2524C47.7161 21.1705 47.7981 20.9884 47.7981 20.8518V16.1654C47.7981 15.9924 47.6918 15.8862 47.5279 15.8862Z" fill="#333131"/>
        <path d="M59.3954 9.576C55.8564 9.60332 52.9335 12.5748 52.982 16.1108C53.0306 19.7105 55.9019 22.4634 59.5259 22.424C63.0437 22.3845 65.9544 19.4525 65.915 15.9347C65.8725 12.338 63.0133 9.54869 59.3954 9.576ZM59.447 20.1111C57.116 20.1111 55.2949 18.3295 55.2949 16.0167C55.2949 13.7039 57.1251 11.8797 59.447 11.8797C61.7689 11.8797 63.5991 13.6857 63.5991 16.0167C63.5991 18.3477 61.778 20.1111 59.447 20.1111Z" fill="#333131"/>
        <path d="M77.1635 9.576C73.6244 9.60332 70.7015 12.5748 70.7501 16.1108C70.7987 19.7105 73.67 22.4634 77.294 22.424C80.8118 22.3845 83.7225 19.4525 83.683 15.9347C83.6406 12.338 80.7814 9.54869 77.1635 9.576ZM77.2181 20.1111C74.8871 20.1111 73.066 18.3295 73.066 16.0167C73.066 13.7039 74.8962 11.8797 77.2181 11.8797C79.54 11.8797 81.3702 13.6857 81.3702 16.0167C81.3702 18.3477 79.5491 20.1111 77.2181 20.1111Z" fill="#333131"/>
        <path d="M94.2243 9.76416H89.629C89.4287 9.76416 89.2678 9.92503 89.2678 10.1253V21.8685C89.2678 22.0749 89.4226 22.2297 89.6442 22.2297H94.1909C97.8999 22.2297 100.541 19.5951 100.541 16.0015C100.541 12.4078 97.8969 9.76416 94.2213 9.76416H94.2243ZM94.1818 20.0292H91.5897V11.9374L94.2152 11.9283C96.528 11.9191 98.2186 13.7099 98.2186 15.9984C98.2186 18.287 96.528 20.0261 94.1818 20.0261V20.0292Z" fill="#333131"/>
        <path d="M122.561 9.74597H120.797C120.624 9.74597 120.527 9.8431 120.527 10.0252V21.9656C120.527 22.1144 120.649 22.2358 120.797 22.2358H122.561C122.74 22.2358 122.84 22.1386 122.84 21.9656V10.0252C122.84 9.87041 122.716 9.74597 122.561 9.74597Z" fill="#333131"/>
        <path d="M139.106 14.5962C139.106 11.7886 136.99 9.76416 134.067 9.76416H129.539C129.326 9.76416 129.168 9.91289 129.168 10.1162V21.8746C129.168 22.0961 129.323 22.2358 129.539 22.2358H131.129C131.33 22.2358 131.49 22.0749 131.49 21.8746V19.3463H134.067C134.362 19.3463 134.641 19.3311 134.92 19.2886L136.207 21.9322C136.298 22.1052 136.471 22.2358 136.626 22.2358H138.432C138.696 22.2358 138.793 22.0476 138.669 21.8078L136.993 18.5419C138.298 17.7042 139.103 16.2929 139.103 14.5962H139.106ZM133.922 17.4128H131.493V11.7917H133.922C135.564 11.7917 136.793 12.9663 136.793 14.581C136.793 16.1957 135.594 17.4128 133.922 17.4128Z" fill="#333131"/>
        <path d="M106.225 9.95239C106.025 9.95239 105.864 10.1133 105.864 10.3136V22.0567C105.864 22.2874 105.995 22.4179 106.235 22.4179H107.834C108.056 22.4179 108.186 22.2874 108.186 22.0567V18.4145H111.78C113.492 18.4145 113.586 16.2808 113.586 16.2808H108.186V12.1529H112.569C113.783 12.1529 114.77 11.1695 114.77 9.95239H106.228H106.225Z" fill="#333131"/>
        <path d="M154.005 20.0292H147.301V17.5251H150.821C151.996 17.5251 152.946 16.5751 152.946 15.4005H147.301V11.9616H152.136C153.35 11.9616 154.333 10.9782 154.333 9.76111H145.349C145.112 9.76111 144.979 9.88555 144.979 10.1314V21.8654C144.979 22.0961 145.109 22.2266 145.349 22.2266H154.13C154.361 22.2266 154.506 22.087 154.506 21.8654V20.4875C154.506 20.2082 154.309 20.0292 154.005 20.0292Z" fill="#333131"/>
        <path d="M8.717 23.1616C10.5411 24.9918 13.5156 24.9918 15.3428 23.1616C17.1852 21.3162 17.082 18.2901 15.2396 16.4447L14.672 15.8771L11.3576 19.1915C12.0952 19.9291 13.291 19.9291 14.0286 19.1915L14.5537 18.6665C15.0393 19.7015 14.8572 20.9762 14.0013 21.8291C12.8266 23.0037 10.8598 22.9096 9.8127 21.5529C8.94464 20.4299 9.12068 18.8182 10.1253 17.8136L19.9836 7.95527C20.7212 7.21772 20.7212 6.02185 19.9836 5.2843L8.82019 16.4447C6.97783 18.2871 6.87464 21.3162 8.717 23.1616Z" fill="#F7B100"/>
        <path d="M5.97941 25.705C9.28473 29.1227 14.7754 29.1227 18.0807 25.705C21.295 22.3815 21.1129 17.0396 17.844 13.7676L17.3128 13.2365L15.9773 14.572L16.5237 15.1183C19.0368 17.6314 19.1795 21.8837 16.6906 24.4212C14.135 27.0284 9.92516 27.0284 7.36953 24.4212C4.88067 21.8837 5.02333 17.6314 7.53646 15.1183L17.3432 5.31464C18.0807 4.57709 18.0807 3.38123 17.3432 2.64368L6.21616 13.7676C2.94726 17.0365 2.76515 22.3785 5.97941 25.705Z" fill="#ED5700"/>
        <path d="M20.445 11.0875L19.9533 10.5958L18.6178 11.9313L19.1368 12.4503C23.1069 16.4204 23.3284 22.8914 19.4464 26.9464C15.4066 31.1684 8.65026 31.1684 4.61346 26.9464C0.734491 22.8914 0.95606 16.4204 4.92305 12.4503L14.7024 2.67097C15.44 1.93342 15.44 0.737551 14.7024 0L3.61489 11.0875C-0.998602 15.701 -1.27177 23.5075 3.22638 28.2303C8.01288 33.2566 16.047 33.2566 20.8335 28.2303C25.3317 23.5075 25.0585 15.698 20.445 11.0875Z" fill="#D62C0B"/>
        <path d="M10.6928 1.33548L9.35736 0C8.61981 0.737551 8.61981 1.93342 9.35736 2.67097L10.6928 1.33548Z" fill="#D62C0B"/>
        <path d="M8.02195 4.0065L6.68646 2.67102C5.94891 3.40857 5.94891 4.60444 6.68646 5.34199L8.02195 4.0065Z" fill="#ED5700"/>
        <path d="M5.42698 6.60453L4.09149 5.26904C3.35394 6.00659 3.35394 7.20246 4.09149 7.94001L5.42698 6.60453Z" fill="#F7B100"/>
    </g>
    <defs>
        <clipPath id="clip0_2001_78">
            <rect width="154.506" height="32" fill="white"/>
        </clipPath>
    </defs>
</svg>
